<svg xmlns="http://www.w3.org/2000/svg" width="216" height="167" viewBox="0 0 216 167">
    <g fill="#000" fill-rule="evenodd">
        <path d="M52 153.94c0-7.03 5.15-12.538 11.232-12.538 2.9 0 5.19 1.089 6.619 2.826l.68-2.716h2.72v9.42h-2.72c-1.538-4.386-3.792-6.886-6.87-6.886-3.719 0-6.475 2.682-6.475 9.603 0 6.485 2.576 9.855 7.085 9.855 3.935 0 6.187-3.153 6.795-7.21H74c-.608 6.303-4.543 10.108-10.41 10.108-7.011 0-11.59-5.326-11.59-12.463M98.684 157.985v-13.79h-3.396v-2.782h11.663v2.782h-3.504v12.753c0 4.634 2.176 6.34 6.348 6.34 1.882 0 3.173-.593 4.169-1.595 1.18-1.188 1.513-2.855 1.513-5.563v-11.935h-3.579v-2.782h9.892v2.782h-3.287v13.717c0 4.523-3.284 8.49-9.816 8.49-6.645 0-10.003-3.337-10.003-8.417M152.805 153.22c4.149 0 5.117-1.825 5.117-4.707 0-2.589-1.111-4.413-5.117-4.413h-2.541v9.12h2.54zM142 162.666h3.65v-18.528H142v-2.736h10.912c7.37 0 10.088 3.21 10.088 7.075 0 3.648-2.434 7.333-9.838 7.333h-2.898v6.856h4.008v2.736H142v-2.736zM4.28 59.477l9.5-.79-3.997-50-9.5.789L0 5.953 47.592 2 49 19.608l-2.763.23C43.437 7.662 42 6.007 37.509 6.383l-21.679 1.8 1.893 23.68L28 31.01c3.974-.33 4.422-1.253 4.895-9.446l2.68-.221 1.73 21.656-2.678.222c-1.625-8.372-2.4-9.371-6.374-9.041l-10.278.854 1.852 23.153 10.45-.87.281 3.522L4.562 63l-.282-3.523zM67.532 55.465l9.62-.28-1.428-50.193-9.624.28L66 1.74 91.368 1l.102 3.535-9.624.28 1.431 50.192 9.621-.28.102 3.536L67.632 59zM134.642 1.446l-.072 3.525-10.625-.222-1.035 50.018 21.428.446c3.602.074 4.294-3.7 6.785-17.92l2.81.058-.447 21.575-46.456-.965.074-3.522 9.66.2 1.032-50.017-9.659-.202.073-3.523 26.432.55zM198.994 4.199l-.289 3.526-10.574-.884-4.11 50.081 21.32 1.784c3.583.298 4.506-3.441 7.862-17.543l2.797.234L214.226 63 168 59.135l.29-3.526 9.612.802 4.112-50.081-9.613-.803.29-3.527 26.303 2.199zM76.702 101.988L71 96h1.97l4.532 4.743L82.007 96H84l-5.726 6.012V108h-1.572zM101.37 102.51c0-2.944-2.067-5.06-4.882-5.06-2.791 0-4.882 2.116-4.882 5.06 0 2.946 2.09 5.04 4.882 5.04 2.815 0 4.883-2.117 4.883-5.04m-11.371 0c0-3.773 2.745-6.51 6.488-6.51 3.746 0 6.512 2.737 6.512 6.51 0 3.774-2.766 6.49-6.512 6.49-3.743 0-6.488-2.716-6.488-6.49M114.51 104.204c0 2.633.72 3.314 3.49 3.314 2.769 0 3.492-.68 3.492-3.314V96H123v8.629c0 3.102-1.42 4.371-5 4.371s-5-1.27-5-4.371V96h1.51v8.204zM139.917 101.343c1.544 0 2.336-.69 2.336-1.957 0-1.248-.792-2.005-2.266-2.005h-5.468v3.962h5.398zM133 96h7.009c2.405 0 3.833 1.247 3.833 3.34 0 1.692-1.11 3.071-2.903 3.384L144 108h-1.677l-3.064-5.255h-4.74V108H133V96z"/>
    </g>
</svg>
