<?xml version="1.0" encoding="utf-8"?>
<!-- Generator: Adobe Illustrator 23.0.3, SVG Export Plug-In . SVG Version: 6.00 Build 0)  -->
<svg version="1.1" id="Layer_1" xmlns="http://www.w3.org/2000/svg" xmlns:xlink="http://www.w3.org/1999/xlink" x="0px" y="0px"
	 width="11px" height="700px" viewBox="0 0 11 700" style="enable-background:new 0 0 11 700;" xml:space="preserve">
<polygon points="11,451.630524 1.009006,384.568909 9.337653,352.636566 9.361815,352.542694 6.338664,328.263885 
	9.611167,318.509705 7.864736,296.81073 9.099899,284.090424 8.221368,275.322998 9.383078,265.983002 9.392742,265.908691 
	7.478144,254.775589 9.571542,240.802994 9.840223,225.316513 9.842156,225.223114 4.205157,209.678452 10.42881,192.489334 
	4.34723,164.212128 8.429161,140.495636 6.44401,124.157349 8.518078,108.220032 8.525809,108.157928 6.542591,91.109161 
	5.993629,78.175156 8.027105,62.068649 7.470413,48.102898 8.422396,34.003654 7.525502,23.952675 5.889733,13.917831 9.913796,0 
	8.979511,0 4.877828,13.860132 6.544524,24.079321 7.43562,34.014412 6.481702,48.088718 7.041295,62.025131 5.008303,78.132614 
	5.556297,91.188866 7.528402,108.151085 5.446119,124.153435 7.429821,140.4702 3.355621,164.136826 3.33919,164.233643 
	9.400475,192.417953 3.150727,209.678452 8.848614,225.392303 8.587665,240.718887 6.487502,254.705658 6.474937,254.786346 
	8.391469,265.932648 7.225893,275.310791 8.115055,284.0914 6.878927,296.801941 8.607961,318.384033 5.328208,328.160217 
	8.356675,352.474243 0.026095,384.413422 0,384.51416 10.002592,451.659882 5.553881,499.741272 8.52291,554.761292 
	5.552915,602.861206 8.979511,700 9.913796,700 6.541624,602.892517 9.510653,554.765198 6.540658,499.760834 10.994201,451.692139 
	"/>
</svg>
